inDegrees=no
num_controls=7
num_derivatives=13
num_iterations=129
num_multipliers=7
num_parameters=0
num_slacks=7
num_states=26
objective=0.446330
objective_accelerations=0.052234
objective_balance=0.007392
objective_effort=0.037593
objective_height=0.344151
objective_ligament=0.004960
solver_duration=1946.251559
status=Solve_Succeeded
success=true
DataType=double
version=3
OpenSimVersion=4.5
endheader
time	/jointset/ground_pelvis/pelvis_tilt/value	/jointset/ground_pelvis/pelvis_tx/value	/jointset/ground_pelvis/pelvis_ty/value	/jointset/hip_l/hip_flexion_l/value	/jointset/hip_l/hip_adduction_l/value	/jointset/hip_l/hip_rotation_l/value	/jointset/back/lumbar_extension/value	/jointset/patellofemoral_l/patellar_flexion_l/value	/jointset/knee_l/knee_flexion_l/value	/jointset/knee_l/knee_adduction_l/value	/jointset/knee_l/knee_rotation_l/value	/jointset/ankle_l/ankle_angle_l/value	/jointset/subtalar_l/subtalar_angle_l/value	/jointset/ground_pelvis/pelvis_tilt/speed	/jointset/ground_pelvis/pelvis_tx/speed	/jointset/ground_pelvis/pelvis_ty/speed	/jointset/hip_l/hip_flexion_l/speed	/jointset/hip_l/hip_adduction_l/speed	/jointset/hip_l/hip_rotation_l/speed	/jointset/back/lumbar_extension/speed	/jointset/patellofemoral_l/patellar_flexion_l/speed	/jointset/knee_l/knee_flexion_l/speed	/jointset/knee_l/knee_adduction_l/speed	/jointset/knee_l/knee_rotation_l/speed	/jointset/ankle_l/ankle_angle_l/speed	/jointset/subtalar_l/subtalar_angle_l/speed	/forceset/tau_hip_flexion_l	/forceset/tau_hip_adduction_l	/forceset/tau_hip_rotation_l	/forceset/tau_knee_flexion_l	/forceset/tau_ankle_angle_l	/forceset/tau_subtalar_angle_l	/forceset/tau_lumbar_extension	lambda_cid13_p0	lambda_cid13_p1	lambda_cid13_p2	lambda_cid13_p3	lambda_cid13_p4	lambda_cid13_p5	lambda_cid14_p0	/jointset/ground_pelvis/pelvis_tilt/accel	/jointset/ground_pelvis/pelvis_tx/accel	/jointset/ground_pelvis/pelvis_ty/accel	/jointset/hip_l/hip_flexion_l/accel	/jointset/hip_l/hip_adduction_l/accel	/jointset/hip_l/hip_rotation_l/accel	/jointset/back/lumbar_extension/accel	/jointset/patellofemoral_l/patellar_flexion_l/accel	/jointset/knee_l/knee_flexion_l/accel	/jointset/knee_l/knee_adduction_l/accel	/jointset/knee_l/knee_rotation_l/accel	/jointset/ankle_l/ankle_angle_l/accel	/jointset/subtalar_l/subtalar_angle_l/accel	gamma_cid13_p0	gamma_cid13_p1	gamma_cid13_p2	gamma_cid13_p3	gamma_cid13_p4	gamma_cid13_p5	gamma_cid14_p0
1	-0.6596598928321505	-0.1284885219019771	0.5746509351890106	2.018714691928735	-0.2889425421543925	0.1651094854272233	-0.4362932970088421	1.27402992432185	1.274029924321201	-0.1744564992354514	0.174512646936633	0.1153314846386112	-0.0176424749818092	-0.01043388236977544	0.0006599790969123441	-0.003387705975136832	0.01677578178482522	0.0008553393647888845	0.003258597161304383	0.0002637859148075064	0.008478177380972937	0.008478177380971492	3.445019620365568e-05	-1.022363896398244e-05	0.002726452626557188	0.001437656085511304	-0.4482075657715361	0.0009198213668765272	-0.01617094369691704	-0.264270057519031	0.1330315654078534	0.01885859488994165	0.3591709236465058	-4.359973906017847	-7.041506625002458	0.279991622216318	9.339374725752529	-736.0925741391347	-39.88225170548947	-0.05384642379668316	1.816848408380225	0.2243633820929218	1.839265450126959	-6.603755290582285	-0.4818977151393292	-1.864540330321704	-0.0357120813825899	-4.97969669966462	-4.979696699664109	-0.05447406384376135	0.01700172288652471	-0.4794350520588408	-0.5760139763064401	1.077110046661396e-09	2.748008627172774e-09	-6.171695809862921e-09	-1.28674510526501e-09	1.58569739845814e-09	-3.339115387865745e-09	1.324875685218216e-09
1.01	-0.6596740810770901	-0.1284707609859871	0.5747088984826302	2.018553184266043	-0.2889571294681493	0.1650476914098739	-0.4362916556476147	1.273865972930155	1.273865972929625	-0.1744564130679873	0.1745126140332708	0.1153349900606011	-0.01765579015914407	0.007596901877626494	0.002893274449771172	0.01497700746583831	-0.04907020801771426	-0.003769729089998882	-0.01561464055440328	6.585312106528735e-05	-0.0412636279854123	-0.04126362798540947	-1.642434732953902e-05	3.2294632319311e-06	-0.002028280593996988	-0.004097841386565581	-0.4481013523166008	0.0009628741788863997	-0.01618210247292243	-0.2641876480520209	0.1329988254541419	0.01889625477973536	0.3591041123521403	-4.359367615295365	-7.059815059123237	0.2850196717455408	9.310596849851569	-735.9509694429801	-39.9084017014955	-0.05424538976996633	1.796293386911394	0.222973685670717	1.834569510730971	-6.573955337118913	-0.4523536061305075	-1.89830628438786	-0.01162885994227718	-4.970697089225542	-4.970697089225238	0.01972240281888801	-0.00655169364142349	-0.4739288043987504	-0.5418925835056013	-2.756386700840018e-09	-5.105029949617745e-09	2.743701989935786e-08	2.568456825804954e-09	-5.901230096558416e-09	2.803886712242016e-08	-5.955168735296055e-09
1.02	-0.6595079414887595	-0.1284306349017108	0.5749504079545892	2.017733429802917	-0.2890178759055506	0.1647972468569291	-0.4362919526106327	1.273204748557977	1.273204748557567	-0.1744568123354729	0.1745127019014233	0.1152908608809165	-0.01772437530136916	0.02563168428467831	0.005133012754173296	0.03332152969274502	-0.1148735783014166	-0.008376485364067697	-0.03447150995781312	-0.000123878935563	-0.0909764187158006	-0.09097641871579754	-6.263679378436596e-05	1.393066432619301e-05	-0.006800467708353375	-0.009616336892534709	-0.4479951388616677	0.00100592699089742	-0.01619326124892599	-0.2641052385850108	0.1329660855004309	0.01893391466953047	0.3590373010577718	-4.364624329317098	-7.076462987473073	0.2890590077012392	9.304436660008927	-735.8878734698581	-39.89406458701276	-0.05585120126015923	1.817648040310198	0.2256519724015827	1.835227207313271	-6.595231386814855	-0.4782352789955392	-1.861266667862139	-0.03407193395981618	-4.97389377246523	-4.97389377246553	-0.05354164442808985	0.01645134266619446	-0.4829258308192795	-0.5726135830848884	-6.450530037947394e-09	-1.306075729787253e-08	6.086660713593345e-08	6.012882316822713e-09	-1.312382833225257e-08	5.907791293447091e-08	-1.323715199626404e-08
1.03	-0.6591613680769707	-0.1283680409343972	0.5753752092013914	2.01625590419168	-0.289124545455384	0.1643583814490503	-0.4362940996051759	1.272046614586801	1.272046614586386	-0.174457670727607	0.1745128898983405	0.1151988765106306	-0.01784800831202539	0.04369005455094799	0.007390633237442318	0.0516301465322018	-0.1806194023243564	-0.01294831828355276	-0.0532935295337608	-0.0003032955142641641	-0.1406382426918301	-0.1406382426918312	-0.0001079976415444293	2.340981802155499e-05	-0.01160366544030777	-0.01510132654208886	-0.4476210164812386	0.001143771928751673	-0.01623688293565784	-0.2639390186895591	0.1330192683540352	0.01903713798750443	0.3588297758723236	-4.323350290219301	-7.133319473046172	0.3036059685623095	9.218326253804356	-735.5809718809992	-39.93360848854871	-0.05890148155807376	1.80098889071865	0.2265468771044485	1.827388839437774	-6.562438242422396	-0.4453024014054269	-1.891479862082647	-0.009542851062392213	-4.960502638059121	-4.960502638059553	0.02011528060255439	-0.006865756462396438	-0.4801040572301722	-0.5351087838104467	-1.014325140147932e-08	-2.101753249073408e-08	9.429436653095145e-08	9.453116211513407e-09	-2.034372933060669e-08	9.011350020878458e-08	-2.051915504131828e-08
1.04	-0.6586339994883347	-0.1282827248040878	0.5759828386000235	2.014121284273733	-0.2892766623550084	0.163731533793487	-0.4362979740317414	1.270392227190287	1.270392227189869	-0.1744589530111095	0.1745131602951556	0.1150586427004558	-0.01802622464476111	0.06179071965455065	0.00967744535331589	0.06988716005869815	-0.2462924396428478	-0.0174659553222556	-0.07206795949457087	-0.0004693653424464383	-0.1902271037833528	-0.1902271037833568	-0.0001474150672050128	3.041064437308285e-05	-0.0164503556861287	-0.02053300130843449	-0.4472468941008179	0.001281616866604707	-0.0162805046223836	-0.2637727987941068	0.1330724512076405	0.01914036130547723	0.3586222506868654	-4.287975443373059	-7.188562025845663	0.3172320707166559	9.154758071226032	-735.352932857107	-39.93330143479614	-0.06369361254182544	1.826107007776786	0.2314902989224962	1.824906544721188	-6.580674045925162	-0.4673961028390908	-1.851748744834611	-0.03140258385599352	-4.959301195563881	-4.959301195563921	-0.05235296000819477	0.0159556771974238	-0.4916243335925797	-0.5619506064431793	-1.362806857702315e-08	-2.861351580403925e-08	1.262545439597948e-07	1.22998856821275e-08	-2.700956146128511e-08	1.191905038381996e-07	-2.74810715015302e-08
1.05	-0.6579254480827873	-0.1281743669285212	0.57677270209609	2.011330493257628	-0.2894736338228783	0.1629172568589325	-0.4363033934577437	1.268242416283863	1.268242416284116	-0.1744606257079557	0.174513501250708	0.1148696612316557	-0.01825844588718577	0.07992244193857352	0.0120016517295249	0.0880691670019538	-0.3118336542291966	-0.0219124575553311	-0.0907741364629152	-0.0006066920777515844	-0.2397128857795668	-0.239712885779552	-0.0001840232950905288	3.706426393134094e-05	-0.02135892831613233	-0.02589574118387037	-0.4464763258142084	0.00147688142679923	-0.01635722288293847	-0.2635568263113588	0.1332774104439013	0.01931525147486174	0.3581748186498552	-4.179333605523895	-7.291828929257877	0.3431644221024796	8.995030727184945	-734.7919530099202	-40.00576659038042	-0.07076153886866157	1.807134995808745	0.2340171566037172	1.812385147463517	-6.536031461869025	-0.4309137786229306	-1.878086282815217	-0.00372355127162239	-4.939880986579371	-4.939880986576503	0.0211370689357246	-0.00712590090037592	-0.4924197008667437	-0.521122927309037	-1.710638874669236e-08	-3.619822437110828e-08	1.581688594521952e-07	1.51281093894892e-08	-3.365807893984867e-08	1.482063017287117e-07	-3.443298525596581e-08
1.06	-0.6570354934229835	-0.1280425407192656	0.5777438931372564	2.007885252836282	-0.2897145976120952	0.1619163113326969	-0.4363099513176616	1.265598414700492	1.265598414701418	-0.1744625741224594	0.1745138795214069	0.114631204841923	-0.01854383197820784	0.09807137050634662	0.01437111209109092	0.1061526690786396	-0.3771823206907141	-0.02626441959165252	-0.1094016778304945	-0.000697052129206862	-0.28906523917295	-0.2890652391729163	-0.0002025585983991798	3.787367407378725e-05	-0.02634533987263625	-0.03116597102791692	-0.4457057575275996	0.001672145986991882	-0.01643394114349369	-0.2633408538286119	0.133482369680161	0.01949014164424395	0.3577273866128439	-4.076649224352907	-7.393592178988055	0.3683311028221617	8.857640495311642	-734.3102992717178	-40.03975594174799	-0.08070221022384456	1.829548264526821	0.2405410959939048	1.80520557140722	-6.542164420958886	-0.448488063488272	-1.836021624681613	-0.02200924708590238	-4.932615474997704	-4.932615474997735	-0.04873837509282224	0.01478683531425552	-0.5071921188926245	-0.5434486001653084	-2.063787468102938e-08	-4.348186004981792e-08	1.875460606893826e-07	1.834053552841513e-08	-4.017133465795307e-08	1.743131095060663e-07	-4.08772040493303e-08
